<svg width="36" height="54" viewBox="0 0 36 54" fill="none" xmlns="http://www.w3.org/2000/svg">
<path d="M14.5509 0.424927V7.05262H9.32494C4.58678 7.05262 0.615089 10.8304 0.615089 15.3372V18.6511C0.615089 23.1579 3.68096 26.8694 8.21008 27.9961L26.0479 32.3704C27.0234 32.6355 28.4169 34.2924 28.4169 35.2866V38.6004C28.4169 39.5283 27.6505 40.2574 26.675 40.2574H9.25526C8.41912 40.2574 7.79201 39.9923 7.51329 39.8597V33.6297H0.54541V40.2574C0.54541 42.5108 1.93899 44.4328 3.61128 45.427C5.21389 46.4874 7.23458 46.8851 9.25526 46.8851H14.4812V53.5127H21.4491V46.8851H26.675C31.4828 46.8851 35.3848 43.1735 35.3848 38.6004V35.2866C35.3848 30.7798 32.319 27.0683 27.7898 25.9415L9.95205 21.5673C8.97655 21.3022 7.58297 19.6452 7.58297 18.6511V15.3372C7.58297 14.4094 8.34944 13.6803 9.32494 13.6803H26.7446C27.5111 13.6803 28.2079 13.9454 28.4866 14.078V20.308H35.4545V13.6803C35.4545 11.4269 34.0609 9.50487 32.3886 8.51071C30.786 7.45028 28.7653 7.05262 26.7446 7.05262H21.5187V0.424927L14.5509 0.424927Z" fill="black"/>
</svg>
