<svg width="54" height="56" viewBox="0 0 54 56" fill="none" xmlns="http://www.w3.org/2000/svg">
<path d="M3.89294 0.835693C2.23608 0.835693 0.892936 2.17884 0.892936 3.83569V11.4394C0.892936 13.0963 2.23608 14.4394 3.89294 14.4394H50.1819C51.8387 14.4394 53.1819 13.0963 53.1819 11.4394V3.83569C53.1819 2.17884 51.8387 0.835693 50.1819 0.835693H3.89294ZM0.818237 21.2413C0.859492 21.2413 0.892936 21.2748 0.892936 21.316V54.6385C0.892936 54.9786 1.19173 55.2507 1.56522 55.2507H52.4349C52.8084 55.2507 53.1072 54.9786 53.1072 54.6385V24.2413C53.1072 22.5845 51.764 21.2413 50.1072 21.2413H0.818237ZM8.36278 31.0432C8.36278 29.3863 9.70593 28.0432 11.3628 28.0432H12.8326C14.4895 28.0432 15.8326 29.3863 15.8326 31.0432V31.8451C15.8326 33.5019 14.4895 34.8451 12.8326 34.8451H11.3628C9.70593 34.8451 8.36278 33.5019 8.36278 31.8451V31.0432ZM23.3025 31.0432C23.3025 29.3863 24.6456 28.0432 26.3025 28.0432H27.7723C29.4292 28.0432 30.7723 29.3863 30.7723 31.0432V31.8451C30.7723 33.5019 29.4292 34.8451 27.7723 34.8451H26.3025C24.6456 34.8451 23.3025 33.5019 23.3025 31.8451V31.0432ZM38.2422 31.0432C38.2422 29.3863 39.5853 28.0432 41.2422 28.0432H42.712C44.3689 28.0432 45.712 29.3863 45.712 31.0432V31.8451C45.712 33.5019 44.3689 34.8451 42.712 34.8451H41.2422C39.5853 34.8451 38.2422 33.5019 38.2422 31.8451V31.0432ZM8.36278 44.647C8.36278 42.9901 9.70593 41.647 11.3628 41.647H12.8326C14.4895 41.647 15.8326 42.9901 15.8326 44.647V45.4488C15.8326 47.1057 14.4895 48.4488 12.8326 48.4488H11.3628C9.70593 48.4488 8.36278 47.1057 8.36278 45.4488V44.647ZM23.3025 44.647C23.3025 42.9901 24.6456 41.647 26.3025 41.647H27.7723C29.4292 41.647 30.7723 42.9901 30.7723 44.647V45.4488C30.7723 47.1057 29.4292 48.4488 27.7723 48.4488H26.3025C24.6456 48.4488 23.3025 47.1057 23.3025 45.4488V44.647Z" fill="black"/>
</svg>
